<svg width="144" height="30" viewBox="0 0 144 30" fill="none" xmlns="http://www.w3.org/2000/svg">
<rect x="2" y="3" width="26" height="26" rx="4" fill="#1455FE"/>
<path fill-rule="evenodd" clip-rule="evenodd" d="M15.4727 24.7942C17.045 23.1524 22 17.7086 22 14.3113C22 10.2734 18.866 7 15 7C11.134 7 8 10.2734 8 14.3113C8 15.9955 9.21783 18.1827 10.6376 20.1603C10.722 20.2779 11.3342 19.6701 11.9459 19.0627C12.5552 18.4578 13.1639 17.8533 13.25 17.9669C13.3571 18.1083 12.9044 18.9992 12.4262 19.9404C12.144 20.4958 11.8529 21.0687 11.6626 21.5155C11.6123 21.6338 11.5584 21.7595 11.5023 21.8904C10.9878 23.0912 10.2902 24.7193 10.45 24.9127C10.5472 25.0303 11.0952 24.4402 11.6349 23.8591C12.1577 23.2963 12.6726 22.7419 12.7627 22.8468C13.4815 23.6839 14.1182 24.367 14.5268 24.7937C14.7899 25.0684 15.2096 25.0689 15.4727 24.7942ZM15 16.5047C16.1598 16.5047 17.1 15.5227 17.1 14.3113C17.1 13.0999 16.1598 12.1179 15 12.1179C13.8402 12.1179 12.9 13.0999 12.9 14.3113C12.9 15.5227 13.8402 16.5047 15 16.5047Z" fill="white"/>
<path d="M42.6663 24.224C41.1729 24.224 39.8663 23.9907 38.7463 23.524C37.6263 23.0387 36.7583 22.3573 36.1423 21.48C35.5449 20.584 35.2463 19.548 35.2463 18.372V17.756C35.2463 17.6627 35.2743 17.588 35.3303 17.532C35.4049 17.4573 35.4889 17.42 35.5823 17.42H38.7743C38.8676 17.42 38.9423 17.4573 38.9983 17.532C39.0729 17.588 39.1103 17.6627 39.1103 17.756V18.176C39.1103 18.9227 39.4556 19.5573 40.1463 20.08C40.8369 20.584 41.7703 20.836 42.9463 20.836C43.9356 20.836 44.6729 20.6307 45.1583 20.22C45.6436 19.7907 45.8863 19.268 45.8863 18.652C45.8863 18.204 45.7369 17.8307 45.4383 17.532C45.1396 17.2147 44.7289 16.944 44.2063 16.72C43.7023 16.4773 42.8903 16.1507 41.7703 15.74C40.5196 15.3107 39.4556 14.872 38.5783 14.424C37.7196 13.976 36.9916 13.3693 36.3943 12.604C35.8156 11.82 35.5263 10.8587 35.5263 9.72C35.5263 8.6 35.8156 7.62 36.3943 6.78C36.9729 5.94 37.7756 5.296 38.8023 4.848C39.8289 4.4 41.0143 4.176 42.3583 4.176C43.7769 4.176 45.0369 4.428 46.1383 4.932C47.2583 5.436 48.1263 6.14533 48.7423 7.06C49.3769 7.956 49.6943 9.00133 49.6943 10.196V10.616C49.6943 10.7093 49.6569 10.7933 49.5823 10.868C49.5263 10.924 49.4516 10.952 49.3583 10.952H46.1383C46.0449 10.952 45.9609 10.924 45.8863 10.868C45.8303 10.7933 45.8023 10.7093 45.8023 10.616V10.392C45.8023 9.608 45.4756 8.94533 44.8223 8.404C44.1876 7.844 43.3103 7.564 42.1903 7.564C41.3129 7.564 40.6223 7.75067 40.1183 8.124C39.6329 8.49733 39.3903 9.01067 39.3903 9.664C39.3903 10.1307 39.5303 10.5227 39.8103 10.84C40.1089 11.1573 40.5383 11.4467 41.0983 11.708C41.6769 11.9507 42.5636 12.2867 43.7583 12.716C45.0836 13.2013 46.1196 13.6307 46.8663 14.004C47.6316 14.3773 48.3129 14.9373 48.9103 15.684C49.5263 16.412 49.8343 17.364 49.8343 18.54C49.8343 20.2947 49.1903 21.6853 47.9023 22.712C46.6143 23.72 44.8689 24.224 42.6663 24.224ZM65.1986 13.472C65.5346 14.424 65.7026 15.544 65.7026 16.832C65.7026 18.12 65.5253 19.2867 65.1706 20.332C64.7413 21.5267 64.06 22.4787 63.1266 23.188C62.212 23.8787 61.0733 24.224 59.7106 24.224C58.3666 24.224 57.3213 23.7573 56.5746 22.824C56.5373 22.768 56.5 22.7493 56.4626 22.768C56.4253 22.7867 56.4066 22.824 56.4066 22.88V28.872C56.4066 28.9653 56.3693 29.04 56.2946 29.096C56.2386 29.1707 56.164 29.208 56.0706 29.208H52.7946C52.7013 29.208 52.6173 29.1707 52.5426 29.096C52.4866 29.04 52.4586 28.9653 52.4586 28.872V9.944C52.4586 9.85067 52.4866 9.776 52.5426 9.72C52.6173 9.64533 52.7013 9.608 52.7946 9.608H56.0706C56.164 9.608 56.2386 9.64533 56.2946 9.72C56.3693 9.776 56.4066 9.85067 56.4066 9.944V10.868C56.4066 10.924 56.4253 10.9613 56.4626 10.98C56.5 10.98 56.5373 10.9613 56.5746 10.924C57.3586 9.89733 58.4413 9.384 59.8226 9.384C61.1106 9.384 62.2213 9.748 63.1546 10.476C64.1066 11.1853 64.788 12.184 65.1986 13.472ZM60.9146 19.744C61.3813 19.016 61.6146 18.0267 61.6146 16.776C61.6146 15.6 61.4186 14.6667 61.0266 13.976C60.5973 13.1733 59.9066 12.772 58.9546 12.772C58.096 12.772 57.452 13.1733 57.0226 13.976C56.6306 14.648 56.4346 15.5907 56.4346 16.804C56.4346 18.0547 56.64 19.0253 57.0506 19.716C57.48 20.4627 58.1146 20.836 58.9546 20.836C59.7946 20.836 60.448 20.472 60.9146 19.744ZM74.0007 9.384C75.214 9.384 76.2967 9.59867 77.2487 10.028C78.2007 10.4387 78.938 11.008 79.4607 11.736C80.002 12.464 80.2727 13.276 80.2727 14.172V23.664C80.2727 23.7573 80.2354 23.8413 80.1607 23.916C80.1047 23.972 80.03 24 79.9367 24H76.6607C76.5674 24 76.4834 23.972 76.4087 23.916C76.3527 23.8413 76.3247 23.7573 76.3247 23.664V22.74C76.3247 22.684 76.306 22.6467 76.2687 22.628C76.2314 22.6093 76.194 22.628 76.1567 22.684C75.3727 23.7107 74.1127 24.224 72.3767 24.224C70.9207 24.224 69.7447 23.8693 68.8487 23.16C67.9527 22.4507 67.5047 21.4053 67.5047 20.024C67.5047 18.5867 68.0087 17.476 69.0167 16.692C70.0247 15.8893 71.462 15.488 73.3287 15.488H76.1847C76.278 15.488 76.3247 15.4413 76.3247 15.348V14.732C76.3247 14.116 76.138 13.64 75.7647 13.304C75.3914 12.9493 74.8314 12.772 74.0847 12.772C73.506 12.772 73.0207 12.8747 72.6287 13.08C72.2554 13.2853 72.0127 13.5747 71.9007 13.948C71.8447 14.1533 71.7234 14.2467 71.5367 14.228L68.1487 13.78C67.9247 13.7427 67.822 13.6587 67.8407 13.528C67.9154 12.744 68.2234 12.0347 68.7647 11.4C69.3247 10.7653 70.0527 10.2707 70.9487 9.916C71.8634 9.56133 72.8807 9.384 74.0007 9.384ZM73.4407 21.284C74.2434 21.284 74.9247 21.0693 75.4847 20.64C76.0447 20.2107 76.3247 19.66 76.3247 18.988V17.98C76.3247 17.8867 76.278 17.84 76.1847 17.84H74.1687C73.3287 17.84 72.666 17.9987 72.1807 18.316C71.714 18.6333 71.4807 19.0813 71.4807 19.66C71.4807 20.164 71.658 20.5653 72.0127 20.864C72.3674 21.144 72.8434 21.284 73.4407 21.284ZM89.3817 24.224C87.8883 24.224 86.591 23.8507 85.4897 23.104C84.407 22.3573 83.6323 21.3307 83.1657 20.024C82.8483 19.0907 82.6897 17.9893 82.6897 16.72C82.6897 15.4693 82.8483 14.3867 83.1657 13.472C83.6137 12.2027 84.3883 11.204 85.4897 10.476C86.591 9.748 87.8883 9.384 89.3817 9.384C90.875 9.384 92.1817 9.75733 93.3017 10.504C94.4403 11.2507 95.1963 12.1933 95.5697 13.332C95.719 13.78 95.7937 14.116 95.7937 14.34V14.396C95.7937 14.564 95.7003 14.6667 95.5137 14.704L92.2937 15.18H92.2377C92.0697 15.18 91.9577 15.0867 91.9017 14.9L91.8177 14.452C91.687 13.9667 91.3977 13.5653 90.9497 13.248C90.5017 12.9307 89.9697 12.772 89.3537 12.772C88.7563 12.772 88.2523 12.9213 87.8417 13.22C87.431 13.5187 87.1417 13.9293 86.9737 14.452C86.7683 15.012 86.6657 15.7773 86.6657 16.748C86.6657 17.7187 86.759 18.484 86.9457 19.044C87.1137 19.604 87.403 20.0427 87.8137 20.36C88.243 20.6773 88.7563 20.836 89.3537 20.836C89.9323 20.836 90.4363 20.6867 90.8657 20.388C91.3137 20.0707 91.6217 19.6413 91.7897 19.1C91.8083 19.0627 91.8177 19.0067 91.8177 18.932C91.8363 18.9133 91.8457 18.8853 91.8457 18.848C91.8643 18.624 91.995 18.5307 92.2377 18.568L95.4577 19.072C95.6443 19.1093 95.7377 19.212 95.7377 19.38C95.7377 19.5293 95.6817 19.8093 95.5697 20.22C95.1777 21.4707 94.4123 22.4507 93.2737 23.16C92.1537 23.8693 90.8563 24.224 89.3817 24.224ZM110.669 15.32C110.781 16.0293 110.818 16.8227 110.781 17.7C110.762 17.924 110.641 18.036 110.417 18.036H101.765C101.653 18.036 101.615 18.0827 101.653 18.176C101.709 18.5493 101.811 18.9227 101.961 19.296C102.446 20.3413 103.435 20.864 104.929 20.864C106.123 20.8453 107.066 20.36 107.757 19.408C107.831 19.296 107.915 19.24 108.009 19.24C108.065 19.24 108.13 19.2773 108.205 19.352L110.221 21.34C110.314 21.4333 110.361 21.5173 110.361 21.592C110.361 21.6293 110.323 21.704 110.249 21.816C109.633 22.5813 108.839 23.1787 107.869 23.608C106.898 24.0187 105.834 24.224 104.677 24.224C103.071 24.224 101.709 23.86 100.589 23.132C99.4873 22.404 98.694 21.3867 98.2087 20.08C97.8167 19.1467 97.6207 17.924 97.6207 16.412C97.6207 15.3853 97.7607 14.48 98.0407 13.696C98.47 12.3707 99.2167 11.316 100.281 10.532C101.363 9.748 102.642 9.356 104.117 9.356C105.983 9.356 107.477 9.89733 108.597 10.98C109.735 12.0627 110.426 13.5093 110.669 15.32ZM104.145 12.772C102.969 12.772 102.194 13.3227 101.821 14.424C101.746 14.6667 101.681 14.9653 101.625 15.32C101.625 15.4133 101.671 15.46 101.765 15.46H106.609C106.721 15.46 106.758 15.4133 106.721 15.32C106.627 14.7787 106.581 14.5173 106.581 14.536C106.413 13.976 106.114 13.5467 105.685 13.248C105.274 12.9307 104.761 12.772 104.145 12.772ZM113.55 24C113.456 24 113.372 23.972 113.298 23.916C113.242 23.8413 113.214 23.7573 113.214 23.664V4.736C113.214 4.64267 113.242 4.568 113.298 4.512C113.372 4.43733 113.456 4.4 113.55 4.4H116.826C116.919 4.4 116.994 4.43733 117.05 4.512C117.124 4.568 117.162 4.64267 117.162 4.736V23.664C117.162 23.7573 117.124 23.8413 117.05 23.916C116.994 23.972 116.919 24 116.826 24H113.55ZM119.966 29.572C119.91 29.572 119.863 29.5347 119.826 29.46C119.788 29.404 119.77 29.3293 119.77 29.236V26.66C119.77 26.5667 119.798 26.4827 119.854 26.408C119.928 26.352 120.012 26.324 120.106 26.324C120.89 26.3053 121.506 26.24 121.954 26.128C122.42 26.016 122.784 25.8013 123.046 25.484C123.326 25.1667 123.54 24.7 123.69 24.084C123.708 24.0467 123.708 23.9907 123.69 23.916L119.098 9.972C119.079 9.93467 119.07 9.888 119.07 9.832C119.07 9.664 119.172 9.58 119.378 9.58H122.878C123.083 9.58 123.214 9.67333 123.27 9.86L125.622 18.932C125.64 18.988 125.668 19.016 125.706 19.016C125.743 19.016 125.771 18.988 125.79 18.932L128.142 9.86C128.198 9.67333 128.328 9.58 128.534 9.58H131.95C132.062 9.58 132.136 9.61733 132.174 9.692C132.23 9.748 132.239 9.84133 132.202 9.972L127.358 24.532C126.891 25.8947 126.415 26.912 125.93 27.584C125.444 28.2747 124.763 28.7787 123.886 29.096C123.008 29.4133 121.767 29.572 120.162 29.572H119.966Z" fill="white"/>
</svg>
